# xmcd
#
# Track frame offsets:
#	150
#	18338
#	33793
#	46802
#	62183
#	88103
#	102255
#	126336
#	143452
#	158906
#	173357
#	189051
#	206331
#	222937
#	232855
#	246155
#	267797
#
# Disc length: 3796 seconds
#
# Revision: 0
# Processed by: cddbd v1.4PL0 Copyright (c) Steve Scherf et al.
# Submitted via: dBpowerAMP V4.0
#
DISCID=d30ed211
DTITLE=Yoram Gaon - Haosef 1
DYEAR=1900
DGENRE=Country
TTITLE0=Hakuku vehasarafan
TTITLE1=Ima ima
TTITLE2=Yesh li halom
TTITLE3=Ani zoher
TTITLE4=Hamilhama hachrona
TTITLE5=Al teshate baahava
TTITLE6=Kineret
TTITLE7=Roza
TTITLE8=Kumi zee
TTITLE9=Gesher alenbi
TTITLE10=Golani sheli
TTITLE11=Ahava begili
TTITLE12=Boee nashuv el hatango
TTITLE13=Bealiyati sham yafati
TTITLE14=At yafa
TTITLE15=Shimri li al hamangina
TTITLE16=Isha hofshiya
EXTD=
EXTT0=
EXTT1=
EXTT2=
EXTT3=
EXTT4=
EXTT5=
EXTT6=
EXTT7=
EXTT8=
EXTT9=
EXTT10=
EXTT11=
EXTT12=
EXTT13=
EXTT14=
EXTT15=
EXTT16=
PLAYORDER=
